<svg width="5.260498" height="9.646828" viewBox="0 0 5.2605 9.64683" fill="none" xmlns="http://www.w3.org/2000/svg" xmlns:xlink="http://www.w3.org/1999/xlink">
	<desc>
			Created with Pixso.
	</desc>
	<defs/>
	<path id="Vector" d="M0.12793 5.13258C0.0458984 5.05054 0 4.93935 0 4.82341C0 4.70747 0.0458984 4.59628 0.12793 4.51424L4.50293 0.139244C4.54297 0.0962601 4.59131 0.0617828 4.64502 0.0378723C4.69873 0.0139618 4.75659 0.00110626 4.81543 6.86646e-05C4.87402 -0.000968933 4.93237 0.00983429 4.98682 0.0318451C5.04126 0.0538483 5.09082 0.0865936 5.13232 0.128143C5.17383 0.169685 5.20679 0.21917 5.22876 0.273651C5.25073 0.328125 5.26147 0.386475 5.2605 0.445221C5.25952 0.50396 5.24658 0.561897 5.22266 0.615562C5.19873 0.669228 5.16431 0.717529 5.12134 0.757584L1.05542 4.82341L5.12134 8.88924C5.16431 8.9293 5.19873 8.9776 5.22266 9.03127C5.24658 9.08493 5.25952 9.14287 5.2605 9.20161C5.26147 9.26035 5.25073 9.3187 5.22876 9.37318C5.20679 9.42766 5.17383 9.47714 5.13232 9.51868C5.09082 9.56023 5.04126 9.59298 4.98682 9.61498C4.93237 9.63699 4.87402 9.6478 4.81543 9.64676C4.75659 9.64572 4.69873 9.63287 4.64502 9.60895C4.59131 9.58504 4.54297 9.55057 4.50293 9.50758L0.12793 5.13258Z" fill="#407BFF" fill-opacity="1.000000" fill-rule="evenodd"/>
</svg>
