<svg xmlns="http://www.w3.org/2000/svg" width="40" height="40" fill="none">
  <path stroke="#407BFF" stroke-linecap="round" stroke-linejoin="round" stroke-width="2" d="M11.25 5v3.75M28.75 5v3.75M5 31.25V12.5a3.75 3.75 0 0 1 3.75-3.75h22.5A3.75 3.75 0 0 1 35 12.5v18.75m-30 0A3.75 3.75 0 0 0 8.75 35h22.5A3.75 3.75 0 0 0 35 31.25m-30 0v-12.5A3.75 3.75 0 0 1 8.75 15h22.5A3.75 3.75 0 0 1 35 18.75v12.5m-15-10h.013v.013H20v-.013ZM20 25h.013v.013H20V25Zm0 3.75h.013v.013H20v-.013ZM16.25 25h.013v.013h-.013V25Zm0 3.75h.013v.013h-.013v-.013ZM12.5 25h.013v.013H12.5V25Zm0 3.75h.013v.013H12.5v-.013Zm11.25-7.5h.013v.013h-.013v-.013Zm0 3.75h.013v.013h-.013V25Zm0 3.75h.013v.013h-.013v-.013Zm3.75-7.5h.013v.013H27.5v-.013Zm0 3.75h.013v.013H27.5V25Z"/>
</svg>