<svg width="36.000000" height="36.000000" viewBox="0 0 36 36" fill="none" xmlns="http://www.w3.org/2000/svg" xmlns:xlink="http://www.w3.org/1999/xlink">
	<desc>
			Created with Pixso.
	</desc>
	<defs>
		<clipPath id="clip8_202">
			<rect id="Frame 11" width="36.000000" height="36.000000" fill="white" fill-opacity="0"/>
		</clipPath>
	</defs>
	<g clip-path="url(#clip8_202)">
		<path id="Vector" d="M6.26074 3.13043L8.39941 32.7888L8.39941 32.8696L26.812 32.8696L28.9507 3.22275L28.9507 3.13043L6.26074 3.13043ZM26.0554 32.0387L9.16162 32.0387L7.55762 9.82376L8.43921 9.82376L9.88989 29.4017C9.89819 29.5048 9.94434 29.601 10.019 29.6714C10.0938 29.7419 10.1917 29.7815 10.2937 29.7825L10.3276 29.7825C10.3809 29.7789 10.4326 29.7646 10.4802 29.7406C10.5278 29.7165 10.5703 29.6832 10.6052 29.6424C10.6401 29.6017 10.6667 29.5544 10.6836 29.5031C10.7004 29.4519 10.707 29.3979 10.7031 29.344L9.25269 9.82376L27.6594 9.82376L26.0554 32.0387ZM27.7163 8.99286L9.19019 8.99286L8.87158 4.66528C8.86157 4.55971 8.81274 4.46184 8.73462 4.39125C8.65674 4.32065 8.55518 4.28252 8.45068 4.28445C8.34351 4.29472 8.24463 4.3468 8.17456 4.42967C8.10449 4.51256 8.06885 4.61978 8.0752 4.72874L8.3938 8.99863L7.50073 8.99863L7.13672 3.95555L28.0803 3.95555L27.7163 8.99286Z" fill="#407BFF" fill-opacity="1.000000" fill-rule="nonzero"/>
		<path id="Vector" d="M12.7793 13.9321C13.0449 13.9321 13.3044 13.8522 13.5251 13.7026C13.7458 13.5529 13.918 13.3403 14.0195 13.0914C14.1213 12.8426 14.1477 12.5688 14.0959 12.3047C14.0442 12.0405 13.9163 11.7979 13.7285 11.6074C13.5408 11.417 13.3018 11.2873 13.0413 11.2348C12.781 11.1822 12.511 11.2092 12.2656 11.3122C12.0205 11.4153 11.8108 11.5898 11.6633 11.8138C11.5156 12.0377 11.437 12.301 11.437 12.5703C11.437 12.9315 11.5784 13.2779 11.8301 13.5332C12.082 13.7886 12.4233 13.9321 12.7793 13.9321ZM12.7793 12.0337C12.884 12.0337 12.9863 12.0652 13.0732 12.1241C13.1604 12.1831 13.228 12.2669 13.2681 12.365C13.3081 12.463 13.3186 12.5709 13.2983 12.675C13.2778 12.7791 13.2275 12.8747 13.1536 12.9498C13.0796 13.0248 12.9851 13.0759 12.8826 13.0966C12.78 13.1173 12.6736 13.1067 12.5769 13.0661C12.4802 13.0255 12.3977 12.9567 12.3396 12.8685C12.2815 12.7802 12.2505 12.6765 12.2505 12.5703C12.2505 12.428 12.3062 12.2915 12.4053 12.1909C12.5046 12.0903 12.6392 12.0337 12.7793 12.0337Z" fill="#407BFF" fill-opacity="1.000000" fill-rule="nonzero"/>
		<path id="Vector" d="M12.7737 18.3577C12.7771 18.6265 12.8589 18.8883 13.0088 19.1101C13.1584 19.3319 13.3696 19.5037 13.6155 19.6039C13.8613 19.7042 14.1311 19.7284 14.3904 19.6734C14.6499 19.6185 14.8875 19.4868 15.0732 19.2952C15.259 19.1035 15.3848 18.8603 15.4346 18.5962C15.4844 18.3322 15.4561 18.0591 15.353 17.8114C15.25 17.5637 15.0771 17.3524 14.856 17.2042C14.635 17.056 14.3755 16.9776 14.1106 16.9787C13.9333 16.9794 13.7578 17.0158 13.5945 17.0856C13.4312 17.1555 13.2832 17.2575 13.1589 17.3857C13.0347 17.5139 12.9365 17.6658 12.8706 17.8326C12.8044 17.9995 12.7715 18.1779 12.7737 18.3577ZM14.6394 18.3577C14.6394 18.4639 14.6084 18.5676 14.5503 18.6559C14.4922 18.7441 14.4097 18.8129 14.313 18.8535C14.2163 18.8941 14.1099 18.9048 14.0073 18.884C13.9048 18.8633 13.8105 18.8122 13.7363 18.7372C13.6624 18.6621 13.6121 18.5665 13.5916 18.4624C13.5713 18.3583 13.5818 18.2504 13.6218 18.1524C13.6619 18.0543 13.7295 17.9705 13.8167 17.9115C13.9036 17.8526 14.0059 17.8211 14.1106 17.8211C14.2507 17.8211 14.3853 17.8777 14.4846 17.9783C14.5837 18.0789 14.6394 18.2154 14.6394 18.3577Z" fill="#407BFF" fill-opacity="1.000000" fill-rule="nonzero"/>
		<path id="Vector" d="M22.3127 18.3924C22.5784 18.3924 22.8379 18.3125 23.0586 18.1629C23.2793 18.0132 23.4514 17.8006 23.553 17.5517C23.6548 17.3029 23.6812 17.0291 23.6294 16.765C23.5776 16.5008 23.4497 16.2582 23.262 16.0677C23.0742 15.8773 22.8352 15.7476 22.5747 15.6951C22.3145 15.6425 22.0444 15.6695 21.7991 15.7725C21.554 15.8756 21.3442 16.0501 21.1968 16.2741C21.0491 16.498 20.9705 16.7613 20.9705 17.0306C20.9705 17.3918 21.1118 17.7382 21.3635 17.9935C21.6155 18.2489 21.9568 18.3924 22.3127 18.3924ZM22.3127 16.4998C22.4177 16.4998 22.5203 16.5314 22.6074 16.5906C22.6943 16.6499 22.7622 16.734 22.802 16.8324C22.842 16.9308 22.8521 17.039 22.8313 17.1432C22.8103 17.2475 22.7595 17.3431 22.6848 17.4179C22.6104 17.4927 22.5156 17.5434 22.4126 17.5634C22.3096 17.5835 22.2031 17.572 22.1064 17.5305C22.01 17.489 21.9277 17.4193 21.8701 17.3303C21.8127 17.2413 21.7827 17.137 21.7839 17.0306C21.7854 16.8893 21.8418 16.7543 21.9409 16.6549C22.0398 16.5555 22.1736 16.4998 22.3127 16.4998Z" fill="#407BFF" fill-opacity="1.000000" fill-rule="nonzero"/>
		<path id="Vector" d="M17.637 15.8247C17.9026 15.8247 18.1621 15.7448 18.3828 15.5952C18.6035 15.4456 18.7756 15.2329 18.8772 14.9841C18.979 14.7352 19.0054 14.4614 18.9536 14.1973C18.9019 13.9331 18.7739 13.6905 18.5862 13.5C18.3984 13.3096 18.1594 13.1799 17.8989 13.1274C17.6387 13.0748 17.3687 13.1018 17.1233 13.2048C16.8782 13.3079 16.6685 13.4825 16.521 13.7064C16.3733 13.9303 16.2947 14.1936 16.2947 14.4629C16.2947 14.8241 16.436 15.1705 16.6877 15.4258C16.9397 15.6812 17.281 15.8247 17.637 15.8247ZM17.637 13.9263C17.7417 13.9263 17.844 13.9578 17.9309 14.0168C18.0181 14.0757 18.0857 14.1595 18.1257 14.2576C18.1658 14.3556 18.1763 14.4635 18.156 14.5676C18.1355 14.6717 18.0852 14.7673 18.0112 14.8424C17.9373 14.9174 17.8428 14.9686 17.7402 14.9893C17.6377 15.0099 17.5312 14.9993 17.4346 14.9587C17.3379 14.9181 17.2554 14.8493 17.1973 14.7611C17.1392 14.6728 17.1082 14.5691 17.1082 14.4629C17.1042 14.3901 17.115 14.3172 17.1399 14.2487C17.1648 14.1802 17.2031 14.1176 17.2527 14.0647C17.302 14.0118 17.3618 13.9697 17.4277 13.9409C17.4939 13.9121 17.5652 13.8974 17.637 13.8975L17.637 13.9263Z" fill="#407BFF" fill-opacity="1.000000" fill-rule="nonzero"/>
		<path id="Vector" d="M15.0774 23.5451C15.083 23.7663 15.1528 23.9809 15.2781 24.1621C15.4033 24.3433 15.5784 24.483 15.7815 24.5638C15.9846 24.6445 16.2065 24.6628 16.4199 24.6161C16.6331 24.5695 16.8281 24.4601 16.9805 24.3017C17.1326 24.1433 17.2356 23.9428 17.2761 23.7253C17.3167 23.5079 17.293 23.2832 17.2083 23.0792C17.1235 22.8753 16.9814 22.7013 16.7998 22.5789C16.6179 22.4565 16.4048 22.3911 16.1865 22.3911C15.8899 22.3986 15.6077 22.5235 15.4004 22.7391C15.1934 22.9547 15.0774 23.2439 15.0774 23.5451ZM16.1865 23.245C16.2451 23.245 16.3022 23.2626 16.3508 23.2956C16.3997 23.3286 16.4375 23.3754 16.46 23.4303C16.4822 23.4851 16.488 23.5454 16.4766 23.6036C16.4653 23.6618 16.437 23.7153 16.3958 23.7572C16.3542 23.7992 16.3018 23.8278 16.2444 23.8394C16.187 23.8509 16.1274 23.845 16.0735 23.8223C16.0193 23.7996 15.9731 23.7611 15.9407 23.7118C15.9082 23.6624 15.8909 23.6044 15.8909 23.5451C15.8909 23.4655 15.9219 23.3892 15.9775 23.3329C16.033 23.2766 16.1082 23.245 16.1865 23.245Z" fill="#407BFF" fill-opacity="1.000000" fill-rule="nonzero"/>
		<path id="Vector" d="M20.4414 22.2929C20.6692 22.301 20.894 22.2394 21.0869 22.1163C21.2798 21.9932 21.4316 21.8141 21.5229 21.6024C21.6145 21.3907 21.6411 21.1559 21.5994 20.9287C21.5576 20.7014 21.4497 20.4921 21.2896 20.3278C21.1292 20.1635 20.9238 20.0519 20.7004 20.0073C20.4768 19.9627 20.2451 19.9872 20.0354 20.0777C19.8257 20.1682 19.6477 20.3205 19.5244 20.5149C19.4011 20.7092 19.3381 20.9367 19.3435 21.1678C19.3506 21.4619 19.4683 21.7423 19.6724 21.9514C19.8765 22.1606 20.1516 22.2827 20.4414 22.2929ZM20.4414 20.8677C20.5198 20.8677 20.595 20.8993 20.6506 20.9556C20.7061 21.0119 20.7373 21.0882 20.7373 21.1678C20.7373 21.2473 20.7061 21.3237 20.6506 21.3799C20.595 21.4362 20.5198 21.4678 20.4414 21.4678C20.3625 21.4678 20.2866 21.4364 20.2302 21.3803C20.1738 21.3242 20.1414 21.2479 20.1399 21.1678C20.1399 21.1279 20.1477 21.0884 20.1631 21.0516C20.1782 21.0148 20.2004 20.9815 20.2285 20.9535C20.2566 20.9256 20.29 20.9036 20.3264 20.8889C20.363 20.8742 20.4021 20.867 20.4414 20.8677Z" fill="#407BFF" fill-opacity="1.000000" fill-rule="nonzero"/>
		<path id="Vector" d="M22.7849 12.98C23.0098 12.98 23.2297 12.9123 23.417 12.7855C23.604 12.6587 23.7498 12.4785 23.8359 12.2676C23.9219 12.0567 23.9446 11.8247 23.9006 11.6008C23.8567 11.377 23.7483 11.1714 23.5894 11.01C23.4302 10.8486 23.2275 10.7387 23.0068 10.6941C22.7861 10.6496 22.5574 10.6725 22.3496 10.7598C22.1416 10.8472 21.9639 10.9951 21.8389 11.1848C21.7139 11.3746 21.6472 11.5977 21.6472 11.826C21.6472 12.132 21.7671 12.4256 21.9805 12.642C22.1938 12.8584 22.4832 12.98 22.7849 12.98ZM22.7849 11.5548C22.8289 11.542 22.8752 11.5398 22.9202 11.5483C22.9653 11.5568 23.0076 11.5758 23.0442 11.6038C23.0808 11.6317 23.1104 11.6679 23.1309 11.7095C23.1511 11.7511 23.1619 11.7969 23.1619 11.8433C23.1619 11.8897 23.1511 11.9355 23.1309 11.9771C23.1104 12.0187 23.0808 12.0549 23.0442 12.0828C23.0076 12.1108 22.9653 12.1298 22.9202 12.1383C22.8752 12.1468 22.8289 12.1446 22.7849 12.1318C22.7407 12.1446 22.6946 12.1468 22.6494 12.1383C22.6045 12.1298 22.562 12.1108 22.5254 12.0828C22.489 12.0549 22.4592 12.0187 22.439 11.9771C22.4185 11.9355 22.4077 11.8897 22.4077 11.8433C22.4077 11.7969 22.4185 11.7511 22.439 11.7095C22.4592 11.6679 22.489 11.6317 22.5254 11.6038C22.562 11.5758 22.6045 11.5568 22.6494 11.5483C22.6946 11.5398 22.7407 11.542 22.7849 11.5548Z" fill="#407BFF" fill-opacity="1.000000" fill-rule="nonzero"/>
		<path id="Vector" d="M11.6646 30.5904C11.6135 30.6142 11.5679 30.6485 11.5305 30.691C11.4932 30.7335 11.4648 30.7834 11.447 30.8375C11.4294 30.8916 11.4231 30.9488 11.4282 31.0056C11.4333 31.0623 11.45 31.1174 11.4771 31.1674C11.512 31.2348 11.5642 31.2913 11.6284 31.3309C11.6924 31.3705 11.7659 31.3918 11.8411 31.3924C11.9041 31.3942 11.9666 31.3803 12.0229 31.352C13.761 30.4488 15.6846 29.9743 17.6372 29.9672C19.7036 29.9977 21.7415 30.4634 23.6211 31.3347C23.6956 31.3741 23.78 31.3894 23.8633 31.3785C23.9463 31.3676 24.0242 31.331 24.0864 31.2737C24.1484 31.2164 24.1917 31.1412 24.2102 31.0582C24.2285 30.9752 24.2217 30.8884 24.1899 30.8096C24.1499 30.7073 24.0725 30.6246 23.9739 30.5788C21.9836 29.6554 19.8254 29.164 17.6372 29.1363C15.5613 29.1381 13.5151 29.6363 11.6646 30.5904Z" fill="#407BFF" fill-opacity="1.000000" fill-rule="nonzero"/>
	</g>
</svg>
