<svg width="17" height="16" viewBox="0 0 17 16" fill="none" xmlns="http://www.w3.org/2000/svg">
<path fill-rule="evenodd" clip-rule="evenodd" d="M8.87535 10.8534C8.77574 10.947 8.64071 10.9996 8.49993 10.9996C8.35915 10.9996 8.22412 10.947 8.12452 10.8534L2.81202 5.85335C2.71818 5.75857 2.66709 5.63321 2.66952 5.50367C2.67194 5.37414 2.7277 5.25055 2.82503 5.15894C2.92237 5.06733 3.05368 5.01486 3.19131 5.01257C3.32894 5.01029 3.46214 5.05837 3.56285 5.14669L8.49993 9.79335L13.437 5.14669C13.4857 5.09756 13.5443 5.05816 13.6095 5.03083C13.6746 5.00351 13.745 4.98881 13.8163 4.98763C13.8876 4.98644 13.9585 4.99879 14.0246 5.02394C14.0908 5.04909 14.1509 5.08652 14.2013 5.134C14.2518 5.18147 14.2916 5.23803 14.3183 5.30029C14.345 5.36255 14.3581 5.42923 14.3569 5.49637C14.3556 5.5635 14.34 5.62971 14.3109 5.69105C14.2819 5.75238 14.24 5.80758 14.1878 5.85335L8.87535 10.8534Z" fill="#407BFF"/>
</svg>
