<svg width="16" height="16" viewBox="0 0 16 16" fill="none" xmlns="http://www.w3.org/2000/svg" xmlns:xlink="http://www.w3.org/1999/xlink">
	<desc>
			Created with Pixso.
	</desc>
	<defs/>
	<path id="Vector" d="M10.866 0.86615C11.1003 0.631714 11.4185 0.5 11.75 0.5C12.0815 0.5 12.3997 0.631714 12.634 0.86615C12.8684 1.10062 13.0002 1.41861 13.0002 1.75015C13.0002 2.08173 12.8684 2.39972 12.634 2.63416L5.55469 9.7135C5.20215 10.0657 4.76758 10.3246 4.29004 10.4668L2.5 11.0002L3.03345 9.21017C3.17554 8.73257 3.43433 8.29794 3.78662 7.9455L9.74121 1.99149L10.866 0.86615ZM9.74121 1.99149L11.5 3.75015M10.5 8.3335L10.5 11.5002C10.5 11.898 10.342 12.2795 10.0605 12.5608C9.7793 12.8421 9.39771 13.0002 9 13.0002L2 13.0002C1.60229 13.0002 1.2207 12.8421 0.939453 12.5608C0.657959 12.2795 0.5 11.898 0.5 11.5002L0.5 4.50015C0.5 4.10233 0.657959 3.72079 0.939453 3.43951C1.2207 3.1582 1.60229 3.00015 2 3.00015L5.16675 3.00015" stroke="#9EBBFF" stroke-opacity="1.000000" stroke-width="1.000000" stroke-linejoin="round"/>
</svg>
