
<svg width="18" height="18" viewBox="0 0 20 20" fill="none" xmlns="http://www.w3.org/2000/svg" xmlns:xlink="http://www.w3.org/1999/xlink">
	<desc>
			Created with Pixso.
	</desc>
	<defs/>
	<path id="Vector" d="M10 7L10 13M13 10L7 10M18.3149 13.4442C17.8627 14.5361 17.1997 15.5282 16.364 16.364C15.5282 17.1997 14.5361 17.8626 13.4441 18.3149C12.3522 18.7672 11.1819 19 10 19C8.81812 19 7.64783 18.7672 6.55591 18.3149C5.46387 17.8626 4.4718 17.1997 3.63599 16.364C2.80029 15.5282 2.13733 14.5361 1.68506 13.4442C1.23279 12.3522 1 11.1819 1 10C1 7.61305 1.94824 5.32387 3.63599 3.63603C5.32385 1.94821 7.61304 1 10 1C12.387 1 14.6761 1.94821 16.364 3.63603C18.0518 5.32387 19 7.61305 19 10C19 11.1819 18.7672 12.3522 18.3149 13.4442Z" stroke="#FFFFFF" stroke-opacity="1.000000" stroke-width="2.000000" stroke-linejoin="round"/>
</svg>
