<svg xmlns="http://www.w3.org/2000/svg" width="40" height="40" fill="none">
  <path stroke="#407BFF" stroke-linecap="round" stroke-linejoin="round" stroke-width="2" d="M19.033 25.283 28.75 35A4.42 4.42 0 0 0 35 28.75l-9.795-9.795m-6.172 6.328 4.16-5.05c.529-.64 1.234-1.043 2.014-1.276.916-.274 1.938-.314 2.905-.234a7.5 7.5 0 0 0 7.476-10.56l-5.46 5.462a5.006 5.006 0 0 1-3.75-3.75l5.46-5.46a7.5 7.5 0 0 0-10.56 7.477c.152 1.793-.118 3.773-1.506 4.916l-.17.142m-.569 8.333-7.758 9.422a4.246 4.246 0 1 1-5.977-5.977l11.395-9.383L9.848 12.5H7.5L3.75 6.25l2.5-2.5L12.5 7.5v2.348l7.1 7.1-2.908 2.395m13.933 11.282L26.25 26.25M8.112 31.875h.013v.013h-.013v-.013Z"/>
</svg>