<svg width="12.000977" height="14.000336" viewBox="0 0 12.001 14.0003" fill="none" xmlns="http://www.w3.org/2000/svg" xmlns:xlink="http://www.w3.org/1999/xlink">
	<desc>
			Created with Pixso.
	</desc>
	<defs/>
	<path id="Vector" d="M7.82715 5.00034L7.59644 11.0003M4.40454 11.0003L4.17383 5.00034M0.500488 2.97034C0.727051 2.931 0.953857 2.89435 1.18188 2.86035C1.95117 2.74402 2.72461 2.65573 3.50049 2.59567C5.16479 2.46707 6.83618 2.46707 8.50049 2.59567C9.27637 2.65573 10.0498 2.74402 10.8191 2.86035C11.0471 2.89502 11.2739 2.93167 11.5005 2.97101M10.8191 2.86035L10.1072 12.1157C10.0781 12.4925 9.90796 12.8445 9.63062 13.1012C9.35303 13.3579 8.98901 13.5005 8.61108 13.5003L3.38989 13.5003C3.01196 13.5005 2.64795 13.3579 2.37036 13.1012C2.09302 12.8445 1.92285 12.4925 1.8938 12.1157L1.18188 2.86035M8.50049 2.59567L8.50049 1.98502C8.50049 1.19833 7.8938 0.542358 7.10718 0.51767C6.36963 0.49411 5.63135 0.49411 4.8938 0.51767C4.10718 0.542358 3.50049 1.19901 3.50049 1.98502L3.50049 2.59567" stroke="#EF5050" stroke-opacity="1.000000" stroke-width="1.000000" stroke-linejoin="round"/>
</svg>
