<svg xmlns="http://www.w3.org/2000/svg" xmlns:xlink="http://www.w3.org/1999/xlink" viewBox="0 0 40 40"><defs><style>.cls-1{fill:none;}.cls-2{clip-path:url(#clip-path);}.cls-3{fill:#fdce24;}.cls-4{fill:#347fc0;}</style><clipPath id="clip-path"><circle class="cls-1" cx="20" cy="20" r="20"/></clipPath></defs><g id="Capa_2" data-name="Capa 2"><g id="Capa_1-2" data-name="Capa 1"><g class="cls-2"><path class="cls-3" d="M60,19.94c0,6,0,12.08,0,18.12a3.25,3.25,0,0,1-3.22,3c-.2,0-.42,0-.62,0H-16.16a3.66,3.66,0,0,1-3.28-1.45,2.76,2.76,0,0,1-.57-1.6q0-9.06,0-18.12a1.11,1.11,0,0,1,.8-.25c.27,0,.53,0,.79,0H58.4C58.94,19.69,59.51,19.55,60,19.94Z"/><path class="cls-4" d="M60,19.94H-20c0-6,0-12.07,0-18.11A3,3,0,0,1-16.93-1.1q36.93,0,73.86,0A3.05,3.05,0,0,1,60,1.83C60,7.87,60,13.9,60,19.94Z"/></g></g></g></svg>